<svg width="20" height="20" viewBox="0 0 20 20" fill="none" xmlns="http://www.w3.org/2000/svg">
<path fill-rule="evenodd" clip-rule="evenodd" d="M8.58813 4.3408C10.5395 2.38948 13.7082 2.3945 15.6569 4.34315C17.6095 6.29577 17.6074 9.46372 15.6592 11.4119L11.4119 15.6592C9.46055 17.6105 6.2918 17.6055 4.34315 15.6569C2.39053 13.7042 2.39265 10.5363 4.3408 8.58813L8.58813 4.3408ZM10.002 5.75535L5.75535 10.002C4.58471 11.1727 4.58579 13.0711 5.75736 14.2426C6.92655 15.4118 8.82753 15.4151 9.99799 14.2447L14.2447 9.99799C15.4153 8.82735 15.4142 6.92893 14.2426 5.75736C13.0735 4.58817 11.1725 4.58489 10.002 5.75535ZM7.87868 5.05025L5.05025 7.87868L6.46447 9.29289L9.2929 6.46447L7.87868 5.05025ZM13.5355 10.7071L10.7071 13.5355L12.1213 14.9497L14.9497 12.1213L13.5355 10.7071ZM10.7136 7.87216C11.1006 7.48524 11.7281 7.48543 12.1213 7.87868C12.5118 8.26921 12.5095 8.90468 12.1278 9.28637L9.28637 12.1278C8.89945 12.5148 8.27193 12.5146 7.87868 12.1213C7.48816 11.7308 7.49046 11.0953 7.87216 10.7136L10.7136 7.87216Z" fill="#3E4056"/>
<mask id="mask0" mask-type="alpha" maskUnits="userSpaceOnUse" x="0" y="0" width="20" height="20">
<path fill-rule="evenodd" clip-rule="evenodd" d="M8.58813 4.3408C10.5395 2.38948 13.7082 2.3945 15.6569 4.34315C17.6095 6.29577 17.6074 9.46372 15.6592 11.4119L11.4119 15.6592C9.46055 17.6105 6.2918 17.6055 4.34315 15.6569C2.39053 13.7042 2.39265 10.5363 4.3408 8.58813L8.58813 4.3408ZM10.002 5.75535L5.75535 10.002C4.58471 11.1727 4.58579 13.0711 5.75736 14.2426C6.92655 15.4118 8.82753 15.4151 9.99799 14.2447L14.2447 9.99799C15.4153 8.82735 15.4142 6.92893 14.2426 5.75736C13.0735 4.58817 11.1725 4.58489 10.002 5.75535ZM7.87868 5.05025L5.05025 7.87868L6.46447 9.29289L9.2929 6.46447L7.87868 5.05025ZM13.5355 10.7071L10.7071 13.5355L12.1213 14.9497L14.9497 12.1213L13.5355 10.7071ZM10.7136 7.87216C11.1006 7.48524 11.7281 7.48543 12.1213 7.87868C12.5118 8.26921 12.5095 8.90468 12.1278 9.28637L9.28637 12.1278C8.89945 12.5148 8.27193 12.5146 7.87868 12.1213C7.48816 11.7308 7.49046 11.0953 7.87216 10.7136L10.7136 7.87216Z" fill="white"/>
</mask>
<g mask="url(#mask0)">
<rect x="2" y="2" width="16" height="16" fill="#3E4056"/>
</g>
<path fill-rule="evenodd" clip-rule="evenodd" d="M5.05025 7.87868C5.44078 7.48816 6.07122 7.48543 6.46446 7.87868C6.85499 8.26921 6.85771 8.89965 6.46446 9.29289C6.07394 9.68342 5.4435 9.68614 5.05025 9.29289C4.65973 8.90237 4.657 8.27193 5.05025 7.87868ZM10.7071 13.5355C11.0976 13.145 11.7281 13.1423 12.1213 13.5355C12.5118 13.9261 12.5146 14.5565 12.1213 14.9497C11.7308 15.3403 11.1004 15.343 10.7071 14.9497C10.3166 14.5592 10.3139 13.9288 10.7071 13.5355ZM13.5355 10.7071C13.9261 10.3166 14.5565 10.3139 14.9497 10.7071C15.3403 11.0976 15.343 11.7281 14.9497 12.1213C14.5592 12.5118 13.9288 12.5146 13.5355 12.1213C13.145 11.7308 13.1423 11.1004 13.5355 10.7071ZM7.87868 5.05025C8.2692 4.65973 8.89964 4.65701 9.29289 5.05025C9.68342 5.44078 9.68614 6.07122 9.29289 6.46447C8.90237 6.85499 8.27193 6.85771 7.87868 6.46447C7.48815 6.07394 7.48543 5.4435 7.87868 5.05025Z" fill="#3E4056"/>
<mask id="mask1" mask-type="alpha" maskUnits="userSpaceOnUse" x="4" y="4" width="12" height="12">
<path fill-rule="evenodd" clip-rule="evenodd" d="M5.05025 7.87868C5.44078 7.48816 6.07122 7.48543 6.46446 7.87868C6.85499 8.26921 6.85771 8.89965 6.46446 9.29289C6.07394 9.68342 5.4435 9.68614 5.05025 9.29289C4.65973 8.90237 4.657 8.27193 5.05025 7.87868ZM10.7071 13.5355C11.0976 13.145 11.7281 13.1423 12.1213 13.5355C12.5118 13.9261 12.5146 14.5565 12.1213 14.9497C11.7308 15.3403 11.1004 15.343 10.7071 14.9497C10.3166 14.5592 10.3139 13.9288 10.7071 13.5355ZM13.5355 10.7071C13.9261 10.3166 14.5565 10.3139 14.9497 10.7071C15.3403 11.0976 15.343 11.7281 14.9497 12.1213C14.5592 12.5118 13.9288 12.5146 13.5355 12.1213C13.145 11.7308 13.1423 11.1004 13.5355 10.7071ZM7.87868 5.05025C8.2692 4.65973 8.89964 4.65701 9.29289 5.05025C9.68342 5.44078 9.68614 6.07122 9.29289 6.46447C8.90237 6.85499 8.27193 6.85771 7.87868 6.46447C7.48815 6.07394 7.48543 5.4435 7.87868 5.05025Z" fill="white"/>
</mask>
<g mask="url(#mask1)">
<rect x="2" y="2" width="16" height="16" fill="#3E4056"/>
</g>
</svg>
